<svg width="120" height="120" viewBox="0 0 120 120" fill="none" xmlns="http://www.w3.org/2000/svg">
<path d="M46.584 53.664L46.0728 53.9568L45.4584 54.312L10.608 74.4719C10.8 74.0423 10.6512 73.1855 10.212 72.3647C9.7032 71.4047 8.92319 70.6488 8.3592 70.6199L43.044 50.5559L44.2224 49.8792C43.4832 50.3592 45.84 54.1344 46.584 53.664Z" fill="#455A64"/>
<path d="M43.0968 50.5222L44.2392 49.8694C44.5632 49.6702 45.1776 50.2534 45.7176 51.0238C46.4376 52.0462 47.0184 53.3998 46.5888 53.6638L45.7464 54.1438L45.444 54.3094C45.8736 54.0454 45.2928 52.6894 44.5728 51.6694C44.0568 50.9326 43.464 50.3638 43.1328 50.5006C43.119 50.5042 43.1065 50.5117 43.0968 50.5222Z" fill="#EBEBEB"/>
<path d="M43.3824 50.3615C44.136 49.8959 46.4832 53.6903 45.732 54.1559L44.592 54.8111C45.3432 54.3455 42.996 50.5511 42.2424 51.0167L43.3824 50.3615Z" fill="#0083C9"/>
<path d="M41.1576 51.6432L42.2832 50.9952C43.0176 50.532 45.3216 54.1728 44.6976 54.7512C44.6855 54.7635 44.6718 54.774 44.6568 54.7824L43.5192 55.4256C44.256 54.96 41.904 51.1704 41.1576 51.6432Z" fill="#EBEBEB"/>
<path d="M44.2224 49.8719H44.2392C44.5608 49.6655 45.1752 50.2535 45.7152 51.0263C46.4352 52.0295 47.0064 53.3567 46.6056 53.6519L51.36 50.9183C51.7416 50.6567 51.84 50.1983 51.7296 49.6775C51.4656 48.2903 49.8432 46.5311 48.816 47.2319L44.2224 49.8719Z" fill="#F28F8F"/>
<path d="M5.3208 74.6399C5.7144 75.1727 5.676 75.4343 5.676 75.4343L10.608 74.4623C11.088 73.7159 10.776 72.5015 10.0992 71.6375L9.8832 71.7599L5.3208 74.6399Z" fill="#F28F8F"/>
<path d="M4.3344 75.7008L5.676 75.4392C5.676 75.4392 5.736 75.1776 5.3208 74.6448L4.1496 75.384C4.11686 75.422 4.10007 75.4712 4.10275 75.5213C4.10543 75.5714 4.12738 75.6185 4.164 75.6528C4.18599 75.6746 4.21317 75.6904 4.24299 75.6988C4.2728 75.7072 4.30426 75.7079 4.3344 75.7008Z" fill="#37474F"/>
<path d="M8.3616 70.615L4.9776 74.455C5.11167 74.4787 5.23408 74.5462 5.3256 74.647L9.8856 71.767L10.1016 71.6446C9.6384 71.0518 9.0096 70.6222 8.3616 70.615Z" fill="#FFA8A7"/>
<path d="M5.3208 74.64C5.28056 74.5843 5.22848 74.5382 5.16831 74.505C5.10814 74.4718 5.04138 74.4523 4.9728 74.448L4.1496 75.3792L5.3208 74.64Z" fill="#455A64"/>
<path opacity="0.2" d="M10.0992 71.6424L51.252 48.5208C51.4794 48.8748 51.642 49.2665 51.732 49.6776C51.8328 50.1936 51.744 50.6544 51.36 50.9184L46.584 53.664L46.0728 53.9568L45.4584 54.312L10.608 74.4719C11.2104 73.5407 10.56 72.168 10.0992 71.6424Z" fill="black"/>
<path d="M70.4424 48.2615L111.881 73.7783L112.728 75.2687V76.4399C112.724 76.7308 112.643 77.0155 112.492 77.2642C112.341 77.5129 112.125 77.7164 111.869 77.8535L56.9688 109.596C56.5321 109.834 56.0371 109.944 55.5408 109.913C55.035 109.896 54.5432 109.743 54.1176 109.469L13.6152 82.2863V81.1175L70.4424 48.2615Z" fill="#263238"/>
<path d="M55.548 108.744C56.0438 108.774 56.5382 108.664 56.9736 108.425L111.869 76.6823C112.126 76.5454 112.341 76.3419 112.492 76.0932C112.643 75.8445 112.725 75.5597 112.728 75.2687C112.722 74.9693 112.642 74.676 112.494 74.4157C112.346 74.1553 112.135 73.9362 111.881 73.7783L72.2808 47.2007L13.62 81.1199L54.1248 108.297C54.5503 108.572 55.0421 108.726 55.548 108.744Z" fill="#0083C9"/>
<path d="M72.2904 43.7688L111.446 70.044L111.84 70.6704L111.821 75.2304C111.812 75.3561 111.77 75.4771 111.698 75.5809C111.627 75.6847 111.529 75.7676 111.415 75.8208L56.5272 107.561C56.2217 107.713 55.8825 107.784 55.5416 107.769C55.2008 107.754 54.8693 107.653 54.5784 107.474L15.42 81.1992L15.4416 76.6392L72.2904 43.7688Z" fill="#EBEBEB"/>
<path d="M15.4392 76.6414L15.9192 76.9702L22.2912 81.2446L23.4768 82.0438L54.5856 102.924C54.8766 103.102 55.208 103.203 55.5489 103.218C55.8897 103.234 56.2288 103.162 56.5344 103.01L111.444 71.2606C111.979 70.9486 111.982 70.4014 111.444 70.0414L110.923 69.6934L72.2832 43.7734L15.9264 76.3582L15.8088 76.4302L15.4392 76.6414Z" fill="#F0F0F0"/>
<path d="M55.572 103.214L55.5528 107.774C55.8862 107.794 56.2186 107.721 56.5128 107.563L111.422 75.8184C111.536 75.7652 111.634 75.6823 111.705 75.5784C111.776 75.4746 111.818 75.3535 111.826 75.228L111.847 70.668C111.837 70.793 111.795 70.9132 111.724 71.0167C111.653 71.1203 111.557 71.2036 111.444 71.2584L56.544 103.003C56.2463 103.163 55.9094 103.237 55.572 103.214Z" fill="#E0E0E0"/>
<path d="M15.4416 76.0343L22.4904 80.7623L23.5968 81.5039L54.5976 102.307C54.8884 102.486 55.2197 102.587 55.5605 102.603C55.9014 102.618 56.2406 102.547 56.5464 102.396L105.708 73.9703C106.15 73.7303 106.56 73.4903 106.944 73.2503C108.946 72.0263 110.153 70.9055 110.928 69.6887L111.022 69.5351C111.084 69.4414 111.126 69.3361 111.146 69.2255C111.184 68.9907 111.136 68.7502 111.01 68.5479C110.885 68.3457 110.692 68.1952 110.465 68.1239C109.17 67.6541 107.933 67.0398 106.776 66.2927L106.728 66.2615L72.2952 43.1543L15.4416 76.0343Z" fill="white"/>
<path d="M72.2856 43.4399L15.8856 76.0463L22.6056 80.5607L23.7096 81.3023L54.72 102.108C55.0037 102.281 55.3308 102.37 55.6632 102.365C55.9255 102.371 56.1851 102.31 56.4168 102.187L105.6 73.7591C106.001 73.5383 106.404 73.3055 106.826 73.0511C108.71 71.8967 109.946 70.7903 110.731 69.5663L110.774 69.4967L110.827 69.4127C110.874 69.3399 110.905 69.2582 110.918 69.1727C110.944 68.9944 110.905 68.8128 110.808 68.6609C110.711 68.509 110.563 68.3968 110.39 68.3447C109.079 67.8697 107.827 67.2473 106.656 66.4895L106.627 66.4727H106.613L72.2928 43.4495M72.2928 43.1663L106.728 66.2663L106.776 66.2975C107.933 67.0446 109.17 67.6589 110.465 68.1287C110.692 68.2 110.885 68.3505 111.01 68.5527C111.136 68.755 111.184 68.9954 111.146 69.2303C111.126 69.3409 111.084 69.4462 111.022 69.5399L110.928 69.6935C110.153 70.9103 108.946 72.0311 106.944 73.2551C106.56 73.4951 106.15 73.7351 105.708 73.9751L56.5464 102.396C56.2782 102.54 55.9772 102.612 55.6728 102.605C55.2933 102.611 54.92 102.507 54.5976 102.307L23.5968 81.5039L22.4904 80.7623L15.4416 76.0343L72.2952 43.1543L72.2928 43.1663Z" fill="#E0E0E0"/>
<path opacity="0.1" d="M22.7616 75.8255C23.2608 76.1639 23.2584 76.6751 22.7616 76.9679C22.4761 77.1102 22.1589 77.1774 21.8402 77.1631C21.5215 77.1489 21.2116 77.0536 20.94 76.8863C20.4384 76.5479 20.4384 76.0367 20.94 75.7439C21.2253 75.6008 21.5425 75.5332 21.8614 75.5475C22.1803 75.5618 22.4902 75.6575 22.7616 75.8255Z" fill="black"/>
<path d="M16.9272 71.8704C17.6232 71.4696 18.492 71.5752 19.3776 72.1656C20.7456 73.0896 21.9264 75.0624 22.4352 77.0952C22.2175 77.1603 21.9888 77.1799 21.7632 77.1528C21.2832 75.3408 20.2488 73.6032 19.0368 72.7848C18.7091 72.5474 18.3237 72.4024 17.9208 72.3648C17.6913 72.3511 17.4629 72.4045 17.2632 72.5184C16.6752 72.8592 16.3344 73.7352 16.3296 74.9184C16.3272 75.114 16.3368 75.3096 16.3584 75.504L15.7176 75.876C15.6749 75.5481 15.6533 75.2178 15.6528 74.8872C15.66 73.44 16.1232 72.336 16.9272 71.8704Z" fill="#263238"/>
<path d="M15.7776 76.2576C15.784 76.3158 15.7944 76.3736 15.8088 76.4304L15.9264 76.3584L15.7776 76.2576Z" fill="#263238"/>
<path opacity="0.1" d="M28.2624 72.6431C28.7616 72.9815 28.7592 73.4927 28.2624 73.7855C27.9769 73.9279 27.6597 73.9951 27.341 73.9808C27.0223 73.9665 26.7125 73.8712 26.4408 73.7039C25.9392 73.3655 25.9392 72.8543 26.4408 72.5615C26.7263 72.419 27.0434 72.3516 27.3622 72.3659C27.681 72.3802 27.9908 72.4756 28.2624 72.6431Z" fill="black"/>
<path d="M22.428 68.6904C23.124 68.2872 23.9928 68.3928 24.876 68.9832C26.2464 69.9072 27.4272 71.88 27.936 73.9152C27.7179 73.978 27.4896 73.9976 27.264 73.9728C26.784 72.1584 25.7472 70.4208 24.5376 69.6024C24.2099 69.365 23.8245 69.22 23.4216 69.1824C23.1919 69.1693 22.9634 69.2235 22.764 69.3384C22.176 69.6768 21.8352 70.5528 21.8304 71.7384C21.828 71.934 21.8376 72.1295 21.8592 72.324L21.2184 72.696C21.1733 72.3683 21.1517 72.0379 21.1536 71.7072C21.1608 70.2552 21.624 69.156 22.428 68.6904Z" fill="#263238"/>
<path opacity="0.1" d="M33.7656 69.4632C34.2624 69.7992 34.2624 70.3104 33.7656 70.6056C33.4798 70.7468 33.1628 70.8134 32.8443 70.7992C32.5258 70.7849 32.2161 70.6902 31.944 70.524C31.44 70.1856 31.4424 69.6744 31.944 69.3816C32.2295 69.239 32.5466 69.1717 32.8654 69.186C33.1842 69.2002 33.494 69.2957 33.7656 69.4632Z" fill="black"/>
<path d="M27.9312 65.52C28.6248 65.1168 29.4936 65.2248 30.3792 65.8128C31.7496 66.7368 32.928 68.7096 33.4392 70.7448C33.2211 70.8075 32.9928 70.8271 32.7672 70.8024C32.2872 68.988 31.2504 67.2504 30.0384 66.432C29.7118 66.1943 29.327 66.0492 28.9248 66.012C28.6945 66.0004 28.4656 66.0545 28.2648 66.168C27.6792 66.5064 27.336 67.3824 27.3312 68.568C27.3296 68.7645 27.34 68.9608 27.3624 69.156L26.7192 69.5256C26.6761 69.1986 26.6552 68.869 26.6568 68.5392C26.664 67.0728 27.12 65.9736 27.9312 65.52Z" fill="#263238"/>
<path opacity="0.1" d="M39.2664 66.2808C39.7656 66.6192 39.7632 67.1304 39.2664 67.4232C38.9809 67.5654 38.664 67.6328 38.3454 67.619C38.0267 67.6051 37.7168 67.5105 37.4448 67.344C36.9432 67.0032 36.9432 66.492 37.4448 66.1992C37.7304 66.0573 38.0475 65.9903 38.3661 66.0046C38.6848 66.0188 38.9946 66.1139 39.2664 66.2808Z" fill="black"/>
<path d="M33.432 62.328C34.128 61.9248 34.9968 62.0328 35.88 62.6232C37.2504 63.5448 38.4312 65.5176 38.94 67.5528C38.7219 67.6156 38.4936 67.6352 38.268 67.6104C37.8 65.796 36.7536 64.0584 35.5392 63.24C35.2126 63.0023 34.8278 62.8572 34.4256 62.82C34.1953 62.8084 33.9664 62.8625 33.7656 62.976C33.18 63.3144 32.8392 64.1904 32.8344 65.376C32.8321 65.5724 32.8417 65.7687 32.8632 65.964L32.22 66.3336C32.1781 66.0064 32.1572 65.677 32.1576 65.3472C32.16 63.8928 32.628 62.7936 33.432 62.328Z" fill="#263238"/>
<path opacity="0.1" d="M44.7672 63.1007C45.2664 63.4391 45.264 63.9503 44.7672 64.2431C44.4821 64.3854 44.1654 64.4527 43.847 64.4384C43.5286 64.4241 43.2192 64.3288 42.948 64.1615C42.444 63.8231 42.4464 63.3119 42.948 63.0191C43.233 62.8765 43.5498 62.8091 43.8682 62.8234C44.1866 62.8377 44.4961 62.9331 44.7672 63.1007Z" fill="black"/>
<path d="M38.9328 59.1456C39.6288 58.7424 40.4976 58.8504 41.3808 59.4408C42.7512 60.3648 43.932 62.3352 44.4408 64.3704C44.2232 64.4357 43.9944 64.4553 43.7688 64.428C43.3008 62.616 42.2544 60.8784 41.0424 60.06C40.7145 59.8226 40.3293 59.6768 39.9264 59.6376C39.6968 59.6263 39.4688 59.6804 39.2688 59.7936C38.6808 60.1344 38.34 61.0104 38.3352 62.1936C38.3329 62.3892 38.3425 62.5847 38.364 62.7792L37.7232 63.1488C37.68 62.8218 37.6592 62.4922 37.6608 62.1624C37.6656 60.72 38.1312 59.6112 38.9328 59.1456Z" fill="#263238"/>
<path opacity="0.1" d="M50.2704 59.9183C50.7696 60.2567 50.7672 60.7679 50.2704 61.0607C49.9853 61.2031 49.6686 61.2703 49.3502 61.2561C49.0318 61.2418 48.7224 61.1465 48.4512 60.9791C47.9472 60.6407 47.9496 60.1295 48.4512 59.8367C48.7364 59.6946 49.0531 59.6275 49.3714 59.6418C49.6897 59.6561 49.9991 59.7512 50.2704 59.9183Z" fill="black"/>
<path d="M44.436 55.9632C45.132 55.5624 46.0008 55.6704 46.884 56.2584C48.2544 57.1824 49.44 59.1552 49.944 61.2C49.7259 61.2629 49.4976 61.2825 49.272 61.2576C48.804 59.4432 47.7576 57.7056 46.5456 56.8872C46.2179 56.6498 45.8325 56.5048 45.4296 56.4672C45.2 56.4551 44.9717 56.5093 44.772 56.6232C44.184 56.9616 43.8432 57.8376 43.8384 59.0232C43.836 59.2188 43.8456 59.4144 43.8672 59.6088L43.2264 59.9808C43.1837 59.6537 43.1621 59.3242 43.1616 58.9944C43.1688 57.5304 43.632 56.4288 44.436 55.9632Z" fill="#263238"/>
<path opacity="0.1" d="M55.7712 56.7384C56.2704 57.0768 56.268 57.588 55.7712 57.8808C55.4861 58.0231 55.1694 58.0904 54.851 58.0761C54.5327 58.0618 54.2232 57.9665 53.952 57.7992C53.448 57.4608 53.4504 56.9496 53.952 56.6568C54.237 56.5142 54.5538 56.4468 54.8722 56.4611C55.1906 56.4754 55.5001 56.5708 55.7712 56.7384Z" fill="black"/>
<path d="M49.9368 52.7832C50.6328 52.3824 51.5016 52.488 52.3872 53.0784C53.76 54 54.936 55.9752 55.44 58.008C55.2224 58.0733 54.9936 58.0929 54.768 58.0656C54.288 56.2536 53.2536 54.516 52.0416 53.6952C51.7132 53.4594 51.3281 53.3153 50.9256 53.2776C50.6962 53.2648 50.468 53.3181 50.268 53.4312C49.68 53.772 49.3392 54.648 49.3344 55.8312C49.3333 56.0268 49.3429 56.2223 49.3632 56.4168L48.7224 56.7864C48.6796 56.4594 48.658 56.1299 48.6576 55.8C48.6696 54.3504 49.1328 53.2488 49.9368 52.7832Z" fill="#263238"/>
<path opacity="0.1" d="M61.2744 53.5559C61.7736 53.8943 61.7712 54.4055 61.2744 54.6983C60.9889 54.8407 60.6718 54.9079 60.353 54.8936C60.0343 54.8793 59.7245 54.784 59.4528 54.6167C58.9512 54.2807 58.9512 53.7671 59.4528 53.4743C59.7385 53.3324 60.0555 53.2654 60.3742 53.2797C60.6928 53.294 61.0026 53.389 61.2744 53.5559Z" fill="black"/>
<path d="M55.44 49.603C56.136 49.1998 57.0024 49.3078 57.888 49.8958C59.2584 50.8198 60.4392 52.7926 60.948 54.8278C60.7299 54.8907 60.5016 54.9103 60.276 54.8854C59.796 53.071 58.7616 51.3334 57.5472 50.515C57.2206 50.2773 56.8358 50.1322 56.4336 50.095C56.204 50.0829 55.9757 50.1371 55.776 50.251C55.188 50.5894 54.8472 51.4654 54.8424 52.651C54.84 52.8466 54.8496 53.0422 54.8712 53.2366L54.228 53.6086C54.1861 53.2815 54.1652 52.952 54.1656 52.6222C54.1728 51.1678 54.636 50.0686 55.44 49.603Z" fill="#263238"/>
<path opacity="0.1" d="M66.7752 50.3758C67.2744 50.7118 67.272 51.223 66.7752 51.5182C66.4895 51.6601 66.1725 51.7271 65.8539 51.7128C65.5352 51.6985 65.2254 51.6035 64.9536 51.4366C64.452 51.0982 64.452 50.587 64.9536 50.2942C65.2391 50.1516 65.5562 50.0843 65.875 50.0986C66.1938 50.1128 66.5036 50.2083 66.7752 50.3758Z" fill="black"/>
<path d="M60.9408 46.4207C61.6368 46.0175 62.5056 46.1255 63.3888 46.7159C64.7592 47.6399 65.94 49.6103 66.4488 51.6455C66.2309 51.7096 66.0024 51.7292 65.7768 51.7031C65.3088 49.8887 64.2624 48.1511 63.0504 47.3327C62.7222 47.0963 62.337 46.9514 61.9344 46.9127C61.7048 46.9007 61.4765 46.9548 61.2768 47.0687C60.6888 47.4071 60.348 48.2831 60.3432 49.4687C60.3408 49.6651 60.3504 49.8615 60.372 50.0567L59.7312 50.4263C59.6873 50.0994 59.6657 49.7698 59.6664 49.4399C59.6736 47.9855 60.1368 46.8863 60.9408 46.4207Z" fill="#263238"/>
<path opacity="0.1" d="M72.2784 47.1936C72.7776 47.532 72.7752 48.0432 72.2784 48.336C71.9929 48.4784 71.6758 48.5456 71.357 48.5313C71.0383 48.517 70.7285 48.4217 70.4568 48.2544C69.9528 47.916 69.9552 47.4048 70.4568 47.112C70.7425 46.9701 71.0595 46.9031 71.3781 46.9174C71.6968 46.9317 72.0066 47.0267 72.2784 47.1936Z" fill="black"/>
<path d="M66.444 43.2407C67.1376 42.8375 68.0064 42.9455 68.892 43.5335C70.2624 44.4575 71.4408 46.4303 71.952 48.4655C71.7339 48.5284 71.5056 48.5479 71.28 48.5231C70.8 46.7087 69.7632 44.9711 68.5512 44.1527C68.2246 43.915 67.8398 43.7699 67.4376 43.7327C67.2072 43.7202 66.978 43.7743 66.7776 43.8887C66.192 44.2271 65.8488 45.1031 65.844 46.2887C65.8427 46.4843 65.8524 46.6798 65.8728 46.8743L65.232 47.2463C65.1889 46.9193 65.168 46.5897 65.1696 46.2599C65.1768 44.8055 65.64 43.7063 66.444 43.2407Z" fill="#263238"/>
<path d="M61.0872 96.4799C61.1969 96.4841 61.3055 96.4572 61.4006 96.4025C61.4957 96.3477 61.5734 96.2672 61.6248 96.1702C61.7064 96.0157 61.729 95.8367 61.6884 95.6667C61.6478 95.4966 61.5467 95.3472 61.404 95.2462L31.2792 75.0311C31.2116 74.9842 31.1349 74.9522 31.0541 74.9372C30.9733 74.9222 30.8902 74.9246 30.8103 74.9441C30.7305 74.9636 30.6557 74.9998 30.5909 75.0504C30.5261 75.101 30.4727 75.1647 30.4344 75.2374C30.3528 75.392 30.3301 75.571 30.3708 75.741C30.4114 75.9111 30.5125 76.0605 30.6552 76.1615L60.7776 96.3839C60.8702 96.4432 60.9772 96.4764 61.0872 96.4799Z" fill="#EBEBEB"/>
<path d="M64.7544 94.368C64.8641 94.3722 64.9727 94.3454 65.0678 94.2906C65.1629 94.2358 65.2406 94.1553 65.292 94.0584C65.3734 93.9035 65.3956 93.7243 65.3546 93.5543C65.3135 93.3843 65.2119 93.235 65.0688 93.1344L34.9464 72.9168C34.8785 72.8703 34.8016 72.8386 34.7207 72.8238C34.6398 72.809 34.5567 72.8114 34.4767 72.8309C34.3968 72.8503 34.3219 72.8864 34.2568 72.9368C34.1918 72.9872 34.1381 73.0507 34.0992 73.1232C34.0178 73.278 33.9956 73.4572 34.0366 73.6272C34.0777 73.7973 34.1793 73.9466 34.3224 74.0472L64.4448 94.2648C64.5365 94.327 64.6437 94.3627 64.7544 94.368Z" fill="#EBEBEB"/>
<path d="M68.424 92.2462C68.5336 92.2501 68.642 92.2228 68.7367 92.1676C68.8314 92.1124 68.9085 92.0315 68.9592 91.9342C69.0408 91.7797 69.0635 91.6007 69.0228 91.4307C68.9822 91.2606 68.8811 91.1112 68.7384 91.0102L38.6136 70.7999C38.5458 70.7538 38.4691 70.7224 38.3884 70.7078C38.3078 70.6932 38.2249 70.6958 38.1453 70.7152C38.0657 70.7347 37.991 70.7706 37.9262 70.8208C37.8613 70.8709 37.8077 70.9341 37.7688 71.0062C37.6872 71.1608 37.6646 71.3398 37.7052 71.5098C37.7458 71.6798 37.8469 71.8293 37.9896 71.9302L68.1144 92.1407C68.206 92.2035 68.3131 92.24 68.424 92.2462Z" fill="#EBEBEB"/>
<path d="M72.0912 90.1272C72.2011 90.1309 72.3097 90.1036 72.4048 90.0484C72.4999 89.9932 72.5775 89.9124 72.6288 89.8152C72.7104 89.6606 72.733 89.4816 72.6924 89.3116C72.6518 89.1416 72.5507 88.9921 72.408 88.8912L42.2832 68.676C42.2158 68.6287 42.139 68.5964 42.0581 68.5812C41.9772 68.566 41.894 68.5683 41.814 68.5878C41.7341 68.6074 41.6592 68.6437 41.5944 68.6945C41.5296 68.7453 41.4764 68.8094 41.4384 68.8824C41.3568 69.037 41.3341 69.2159 41.3748 69.386C41.4154 69.556 41.5165 69.7054 41.6592 69.8064L71.784 90.0216C71.8747 90.0845 71.981 90.121 72.0912 90.1272Z" fill="#EBEBEB"/>
<path d="M75.7608 88.003C75.8705 88.0072 75.9791 87.9804 76.0742 87.9256C76.1693 87.8709 76.247 87.7904 76.2984 87.6934C76.3798 87.5386 76.402 87.3594 76.361 87.1894C76.3199 87.0193 76.2183 86.87 76.0752 86.7694L45.9504 66.5542C45.8825 66.5077 45.8056 66.476 45.7247 66.4612C45.6438 66.4464 45.5607 66.4488 45.4807 66.4683C45.4008 66.4878 45.3259 66.5239 45.2608 66.5742C45.1958 66.6246 45.1421 66.6881 45.1032 66.7606C45.0218 66.9155 44.9996 67.0947 45.0406 67.2647C45.0817 67.4347 45.1833 67.584 45.3264 67.6846L75.4512 87.8998C75.5429 87.9621 75.6501 87.9978 75.7608 88.003Z" fill="#EBEBEB"/>
<path d="M79.428 85.884C79.538 85.8882 79.6469 85.8612 79.742 85.8059C79.8372 85.7507 79.9147 85.6696 79.9656 85.572C80.047 85.4171 80.0692 85.2379 80.0281 85.0679C79.9871 84.8979 79.8855 84.7486 79.7424 84.648L49.62 64.4328C49.5523 64.3859 49.4753 64.3539 49.3943 64.3389C49.3133 64.3239 49.2301 64.3262 49.15 64.3457C49.07 64.3652 48.995 64.4014 48.93 64.452C48.8649 64.5026 48.8114 64.5664 48.7728 64.6392C48.6912 64.7937 48.6685 64.9727 48.7092 65.1427C48.7498 65.3128 48.8509 65.4622 48.9936 65.5632L79.1184 85.7784C79.2095 85.8423 79.3169 85.8789 79.428 85.884Z" fill="#EBEBEB"/>
<path d="M83.0952 83.7599C83.205 83.7636 83.3137 83.7363 83.4088 83.6811C83.5039 83.6259 83.5815 83.5451 83.6328 83.4479C83.7144 83.2933 83.737 83.1143 83.6964 82.9443C83.6558 82.7743 83.5547 82.6248 83.412 82.5239L53.28 62.3111C53.2124 62.2642 53.1357 62.2323 53.0549 62.2173C52.9741 62.2023 52.891 62.2046 52.8111 62.2241C52.7313 62.2436 52.6565 62.2799 52.5917 62.3304C52.5269 62.381 52.4735 62.4448 52.4352 62.5175C52.3536 62.6721 52.3309 62.851 52.3716 63.0211C52.4122 63.1911 52.5133 63.3405 52.656 63.4415L82.788 83.6567C82.8791 83.7184 82.9853 83.7541 83.0952 83.7599Z" fill="#EBEBEB"/>
<path d="M86.7648 81.6406C86.8745 81.6449 86.9831 81.618 87.0782 81.5633C87.1733 81.5085 87.251 81.428 87.3024 81.331C87.3838 81.1762 87.406 80.997 87.365 80.827C87.3239 80.6569 87.2223 80.5077 87.0792 80.407L56.9544 60.1918C56.887 60.1446 56.8102 60.1123 56.7293 60.0971C56.6484 60.0819 56.5652 60.0841 56.4852 60.1037C56.4053 60.1232 56.3304 60.1596 56.2656 60.2104C56.2008 60.2612 56.1476 60.3252 56.1096 60.3982C56.028 60.5528 56.0053 60.7318 56.046 60.9018C56.0866 61.0718 56.1877 61.2213 56.3304 61.3222L86.4552 81.5374C86.5471 81.5993 86.6541 81.635 86.7648 81.6406Z" fill="#EBEBEB"/>
<path d="M90.432 79.5191C90.541 79.5206 90.6483 79.4914 90.7417 79.435C90.835 79.3786 90.9106 79.2971 90.96 79.1999C91.0414 79.045 91.0636 78.8659 91.0225 78.6958C90.9815 78.5258 90.8799 78.3765 90.7368 78.2759L60.624 58.0799C60.5564 58.0326 60.4795 58.0003 60.3984 57.9851C60.3173 57.9698 60.2339 57.9721 60.1537 57.9916C60.0736 58.0111 59.9985 58.0475 59.9335 58.0983C59.8685 58.1491 59.8151 58.2132 59.7768 58.2863C59.6954 58.4411 59.6732 58.6203 59.7142 58.7903C59.7553 58.9604 59.8569 59.1097 60 59.2103L90.1224 79.4159C90.2141 79.4781 90.3213 79.5138 90.432 79.5191Z" fill="#EBEBEB"/>
<path d="M94.1016 77.4C94.2112 77.4038 94.3196 77.3765 94.4143 77.3213C94.509 77.2661 94.5861 77.1852 94.6368 77.088C94.7184 76.9334 94.741 76.7544 94.7004 76.5844C94.6598 76.4144 94.5587 76.2649 94.416 76.164L64.2912 55.9488C64.2237 55.9019 64.1469 55.8699 64.0661 55.855C63.9853 55.84 63.9022 55.8423 63.8223 55.8618C63.7425 55.8813 63.6677 55.9176 63.6029 55.9681C63.5381 56.0187 63.4847 56.0825 63.4464 56.1552C63.3648 56.3097 63.3422 56.4887 63.3828 56.6588C63.4234 56.8288 63.5245 56.9782 63.6672 57.0792L93.792 77.2944C93.8836 77.3572 93.9907 77.3938 94.1016 77.4Z" fill="#EBEBEB"/>
<path d="M97.7688 75.2808C97.8787 75.2845 97.9873 75.2572 98.0824 75.202C98.1775 75.1468 98.2551 75.066 98.3064 74.9688C98.388 74.8142 98.4107 74.6352 98.37 74.4652C98.3294 74.2952 98.2283 74.1458 98.0856 74.0448L67.9584 53.8272C67.8909 53.7803 67.8141 53.7484 67.7333 53.7334C67.6525 53.7184 67.5694 53.7207 67.4895 53.7402C67.4097 53.7597 67.3349 53.796 67.2701 53.8466C67.2053 53.8971 67.1519 53.9609 67.1136 54.0336C67.032 54.1882 67.0093 54.3672 67.05 54.5372C67.0906 54.7072 67.1917 54.8566 67.3344 54.9576L97.4616 75.1752C97.5525 75.2378 97.6587 75.2743 97.7688 75.2808Z" fill="#EBEBEB"/>
<path d="M101.438 73.1567C101.548 73.1609 101.657 73.1341 101.752 73.0793C101.847 73.0246 101.925 72.9441 101.976 72.8471C102.057 72.6923 102.08 72.5131 102.039 72.343C101.997 72.173 101.896 72.0237 101.753 71.9231L71.628 51.7079C71.5603 51.661 71.4834 51.629 71.4023 51.614C71.3213 51.599 71.2381 51.6013 71.158 51.6208C71.078 51.6403 71.003 51.6766 70.938 51.7271C70.8729 51.7777 70.8194 51.8415 70.7808 51.9143C70.6994 52.0692 70.6772 52.2483 70.7182 52.4184C70.7593 52.5884 70.8609 52.7377 71.004 52.8383L101.129 73.0535C101.221 73.1157 101.328 73.1515 101.438 73.1567Z" fill="#EBEBEB"/>
<path d="M105.106 71.0398C105.215 71.0438 105.324 71.0168 105.419 70.9621C105.514 70.9074 105.592 70.827 105.643 70.7302C105.725 70.5754 105.747 70.3962 105.706 70.2262C105.665 70.0561 105.563 69.9069 105.42 69.8062L75.2976 49.5886C75.2297 49.5421 75.1528 49.5104 75.0719 49.4956C74.991 49.4808 74.9079 49.4833 74.8279 49.5027C74.748 49.5222 74.6731 49.5583 74.608 49.6087C74.543 49.659 74.4893 49.7225 74.4504 49.795C74.369 49.9499 74.3468 50.1291 74.3878 50.2991C74.4289 50.4692 74.5305 50.6184 74.6736 50.719L104.796 70.9342C104.887 70.9973 104.995 71.0339 105.106 71.0398Z" fill="#EBEBEB"/>
<path d="M57.36 98.6088C57.4699 98.6125 57.5785 98.5852 57.6736 98.53C57.7687 98.4748 57.8463 98.394 57.8976 98.2968C57.9792 98.1422 58.0019 97.9632 57.9612 97.7932C57.9206 97.6232 57.8195 97.4738 57.6768 97.3728L25.8144 75.9528C25.7467 75.9059 25.6698 75.8739 25.5888 75.8589C25.5078 75.8439 25.4245 75.8462 25.3444 75.8657C25.2644 75.8852 25.1894 75.9214 25.1244 75.972C25.0593 76.0226 25.0058 76.0864 24.9672 76.1592C24.8851 76.3143 24.8625 76.494 24.9036 76.6646C24.9447 76.8352 25.0467 76.9849 25.1904 77.0856L57.0528 98.5032C57.1439 98.5653 57.25 98.6018 57.36 98.6088Z" fill="#0083C9"/>
<path d="M54.1944 85.7401C54.24 85.6081 54.3072 85.4737 54.4032 85.5001C54.4319 85.5146 54.456 85.5369 54.4726 85.5645C54.4891 85.5921 54.4975 85.6239 54.4968 85.6561C54.4963 85.6988 54.4881 85.741 54.4728 85.7809C54.444 85.8769 54.384 85.9273 54.3528 86.0209C53.9976 87.1945 55.1616 87.5665 55.776 87.6097C57.5184 87.7393 59.2296 86.9545 60.8304 86.1001C63.1272 84.8761 65.4144 83.5297 67.8192 82.7401C69.84 82.0801 72.96 81.4249 74.1216 84.4801C74.1432 84.5425 74.0712 84.6553 74.04 84.5857C72.78 81.7537 69.8976 82.3393 67.9104 82.9969C65.4816 83.8009 63.1752 85.1689 60.852 86.4025C59.2992 87.2257 57.6672 87.9433 55.9824 87.9001C55.212 87.8833 53.6592 87.4369 54.1392 85.9057C54.1536 85.8721 54.1728 85.8073 54.1944 85.7401Z" fill="#263238"/>
<path d="M44.64 49.721C45.7248 47.7626 47.004 45.605 48.3504 42.4442C49.6968 39.2834 50.8416 39.257 53.8704 38.1722C56.3832 37.2746 63.2304 34.3922 65.964 33.2282C69.4824 31.7282 70.4544 31.5482 73.452 28.1546C76.7136 24.4514 87.6648 12.2954 87.6648 12.2954L101.585 38.0594C96.936 40.733 93.0456 42.9602 90.216 44.7674C87.744 46.3418 86.2296 47.705 84.8472 52.5698C83.9064 55.8722 83.796 57.305 81.2112 60.2498C79.2072 62.5394 78.6216 63.1874 76.3008 65.729L67.2 61.9202C67.4883 61.4596 67.6673 60.9391 67.7232 60.3986C67.8 58.4474 65.0472 58.7522 63.7872 58.8842C60.8376 59.1962 51.3648 63.3866 51.3648 63.3866L45.768 58.9634C44.8608 58.0034 43.9728 56.8346 44.9016 54.1634C44.2776 53.4554 43.5552 51.6818 44.64 49.721Z" fill="#FFA8A7"/>
<path d="M51.5616 42.2954C51.8107 41.9853 52.1101 41.7192 52.4472 41.5082C52.6296 41.3834 52.8096 41.2682 52.992 41.141C53.2017 40.9909 53.4214 40.8554 53.6496 40.7354C53.6928 40.7162 53.6856 40.7882 53.6688 40.8074C53.0568 41.4218 52.2288 41.7674 51.732 42.5042C51.5332 42.8149 51.3606 43.1417 51.216 43.481C51.0192 43.9058 50.8176 44.3234 50.604 44.741C50.5872 44.7722 50.5656 44.741 50.5704 44.7146C50.7936 43.877 51.0408 43.0058 51.5616 42.2954Z" fill="#F28F8F"/>
<path d="M44.88 54.1824C44.7218 53.9913 44.5872 53.7817 44.4792 53.5584C45.12 52.2168 46.6392 49.8216 47.856 46.8384C47.0136 49.2144 46.2936 50.4 44.88 54.1824Z" fill="#F28F8F"/>
<path d="M49.5336 42.2256C49.5601 42.0366 49.6084 41.8514 49.6776 41.6736C49.7958 41.3501 49.9732 41.0514 50.2008 40.7928C50.4728 40.5226 50.7916 40.3038 51.1416 40.1472C51.5129 39.9453 51.9091 39.7928 52.32 39.6936C52.32 39.6936 52.32 39.708 52.32 39.7128C51.9744 39.9096 51.6168 40.0872 51.2712 40.284C50.9411 40.4462 50.6434 40.6675 50.3928 40.9368C49.9656 41.4432 49.8072 42.1128 49.524 42.6984C49.5072 42.732 49.4712 42.7248 49.4712 42.6984C49.4781 42.5393 49.499 42.3811 49.5336 42.2256Z" fill="#F28F8F"/>
<path d="M45.048 58.0992C45.1536 56.7 45.8832 55.7976 46.644 54.0576C47.604 51.8736 49.7208 47.7024 50.4336 45.2568C50.1936 47.4528 48.7272 55.0488 47.6592 60.4728L45.7584 58.9704C45.494 58.7037 45.2561 58.4119 45.048 58.0992Z" fill="#F28F8F"/>
<path d="M67.3896 61.6345C67.4973 61.3526 67.629 61.0804 67.7832 60.8209C67.92 60.5569 68.04 60.2833 68.1576 60.0097C68.3785 59.4994 68.5653 58.9751 68.7168 58.4401C68.8688 57.8961 68.9582 57.3364 68.9832 56.7721C68.9944 56.4968 68.9888 56.2211 68.9664 55.9465C68.9544 55.8025 68.9352 55.6585 68.9136 55.5145C68.8968 55.4065 68.8656 55.2865 68.8584 55.1785C68.8512 55.0705 68.8584 55.0129 68.844 54.9385C68.844 54.8905 68.9304 54.7753 68.9664 54.8521C69.0308 54.9761 69.0846 55.1054 69.1272 55.2385C69.1606 55.3595 69.1878 55.482 69.2088 55.6057C69.2503 55.8477 69.2752 56.0923 69.2832 56.3377C69.2961 56.7967 69.2631 57.2557 69.1848 57.7081C69.0256 58.6044 68.7267 59.4701 68.2992 60.2737C68.1768 60.5137 68.0448 60.7321 67.9128 60.9601C67.7813 61.2179 67.6202 61.4595 67.4328 61.6801C67.3968 61.6993 67.3824 61.6561 67.3896 61.6345Z" fill="#F28F8F"/>
<path d="M50.0424 59.8921L55.776 49.0537C55.776 49.0537 61.6344 50.7337 64.416 52.2721C67.1976 53.8105 68.496 59.1361 67.428 61.6729L67.3152 61.6969C67.543 61.3014 67.6807 60.8605 67.7184 60.4057C67.7952 58.4545 65.0424 58.7593 63.7824 58.8913C60.8328 59.2033 51.36 63.3937 51.36 63.3937L49.968 62.2921L50.0424 59.8921Z" fill="#F28F8F"/>
<path d="M87.55 27.9357C84.3396 20.3909 85.1977 12.8021 89.4665 10.9857C93.7353 9.1693 99.7984 13.8131 103.009 21.3579C106.219 28.9028 105.361 36.4915 101.092 38.3079C96.8234 40.1243 90.7603 35.4805 87.55 27.9357Z" fill="#FFA8A7"/>
<path d="M54.5448 40.3682C51.2208 41.8346 50.8296 43.661 50.2416 46.025C49.6536 48.389 47.4048 53.4242 46.524 55.6994C45.6432 57.9746 45.4488 58.5578 46.3296 61.6394C47.2104 64.721 49.7064 70.7594 49.7064 70.7594C49.7064 70.7594 57.1872 47.0762 57.6744 44.6402C58.1616 42.2042 57.8712 39.4922 54.5448 40.3682Z" fill="#FFA8A7"/>
<path d="M47.0712 60.0553C47.0748 60.0615 47.0767 60.0685 47.0767 60.0757C47.0767 60.0829 47.0748 60.0899 47.0712 60.0961C46.9656 60.1297 46.8048 60.0577 46.6992 60.0385C46.5936 60.0193 46.4304 59.9857 46.296 59.9665C46.1616 59.9473 46.032 59.9353 45.8928 59.9281C45.876 59.8393 45.8616 59.7529 45.8472 59.6713C46.1869 59.711 46.5205 59.7916 46.8408 59.9113C46.9314 59.9325 47.0125 59.9831 47.0712 60.0553ZM47.0856 58.4473C46.7541 58.3222 46.4107 58.2314 46.0608 58.1761C45.9693 58.164 45.8771 58.1568 45.7848 58.1545C45.7848 58.0633 45.8064 57.9721 45.8232 57.8833C45.924 57.8833 46.0224 57.8977 46.1232 57.9121C46.502 57.9549 46.8679 58.075 47.1984 58.2649C47.3064 58.3201 47.1864 58.4809 47.0856 58.4473ZM45.972 58.8001C46.1844 58.8093 46.396 58.8317 46.6056 58.8673C47.0375 58.9295 47.4541 59.0711 47.8344 59.2849C47.9256 59.3401 47.8032 59.4625 47.724 59.4361C47.3664 59.299 46.9989 59.1891 46.6248 59.1073C46.4448 59.0731 46.2629 59.0507 46.08 59.0401C45.9864 59.0401 45.8832 59.0401 45.7824 59.0401C45.7824 58.9561 45.7704 58.8769 45.768 58.8001C45.84 58.8001 45.9048 58.8001 45.972 58.8001Z" fill="#F28F8F"/>
<path d="M49.2456 55.1617C50.6033 52.505 51.7858 49.7623 52.7856 46.9513L55.776 46.0249L56.7672 47.9305C54.6576 55.0801 49.7064 70.7569 49.7064 70.7569C49.7064 70.7569 49.3368 69.8617 48.8304 68.5969C48.8304 68.5969 48.1632 63.0577 47.8704 60.5785C47.5776 58.0993 48.2832 56.9689 49.2456 55.1617Z" fill="#F28F8F"/>
<path d="M60.024 68.7602C60.2088 68.6354 60.3936 68.5202 60.576 68.3786C63.0504 66.5594 65.6856 64.685 67.2 61.9202L76.32 65.7314C74.7655 67.442 73.1098 69.0577 71.3616 70.5698C69.8856 71.909 65.3976 73.7474 62.4816 75.2138C59.5656 76.6802 58.3416 77.4074 57.6072 76.9946C56.748 76.5338 55.6944 71.7026 60.024 68.7602Z" fill="#FFA8A7"/>
<path d="M70.5408 71.1769C70.5096 71.0713 70.4784 70.9681 70.44 70.8649C70.3599 70.6502 70.2678 70.4403 70.164 70.2361C70.0401 70.0411 69.9356 69.8345 69.852 69.6193C69.84 69.5665 69.912 69.4777 69.9648 69.5185C70.1539 69.6928 70.3071 69.9023 70.416 70.1353C70.545 70.3709 70.655 70.6165 70.7448 70.8697C70.7616 70.9153 70.7736 70.9633 70.7904 71.0089L70.5408 71.1769Z" fill="#F28F8F"/>
<path d="M69.588 71.6592C69.4915 71.2997 69.3613 70.9502 69.1992 70.6152C69.0593 70.3319 68.8878 70.0655 68.688 69.8208C68.5489 69.6467 68.3938 69.486 68.2248 69.3408C68.0856 69.228 67.9392 69.1272 67.812 69.0024C67.7784 68.9688 67.8264 68.88 67.8744 68.892C68.2286 69.0033 68.5468 69.2071 68.796 69.4824C69.065 69.7504 69.2938 70.056 69.4752 70.3896C69.6712 70.753 69.8242 71.138 69.9312 71.5368L69.6072 71.724C69.6 71.712 69.6 71.6856 69.588 71.6592Z" fill="#F28F8F"/>
<path d="M68.5896 71.5801C68.4901 71.3045 68.3706 71.0366 68.232 70.7785C68.1724 70.6677 68.1067 70.5604 68.0352 70.4569C67.9508 70.3619 67.8849 70.252 67.8408 70.1329C67.8408 70.0801 67.9032 69.9961 67.9584 70.0249C68.1998 70.202 68.3956 70.434 68.5296 70.7017C68.6806 70.9521 68.8107 71.2146 68.9184 71.4865C68.9856 71.6593 69.0456 71.8345 69.1008 72.0121L68.7888 72.1777C68.7264 71.9761 68.664 71.7769 68.5896 71.5801Z" fill="#F28F8F"/>
<path d="M63.696 74.6161C63.5667 73.7014 63.1239 72.8599 62.4432 72.2354C62.4432 72.2354 60.3528 73.1114 59.46 73.9154C58.5672 74.7194 57.8784 76.4929 58.4352 77.0617C59.7144 77.0665 61.44 75.8065 63.696 74.6161Z" fill="#FFC4C3"/>
<path opacity="0.3" d="M63.696 74.6161C63.432 74.7553 63.1776 74.8946 62.928 75.0338C62.6549 74.1239 62.4938 73.1842 62.448 72.2354C63.1269 72.8607 63.568 73.7021 63.696 74.6161Z" fill="white"/>
<path d="M59.8512 54.089C58.3872 56.489 56.136 60.809 56.1096 61.3658C55.9608 64.517 56.1408 67.8098 56.1408 71.2178C56.1408 74.6258 56.1696 77.1146 54.6744 79.3778C53.3208 81.4178 50.8344 81.9794 50.4816 79.7498C50.1744 77.8418 49.9824 73.9586 49.7064 70.7642C49.4304 67.5698 48.6984 62.9426 48.5064 60.3578C48.3144 57.773 50.0136 55.2362 51.1584 51.893C52.152 48.9866 52.9944 45.3146 54.552 43.757C56.1096 42.1994 62.004 39.281 64.152 38.1482L59.8512 54.089Z" fill="#FFA8A7"/>
<path d="M48.6768 60.5569C48.8614 60.5701 49.0466 60.5701 49.2312 60.5569C49.6152 60.5181 49.9956 60.4491 50.3688 60.3505C50.4648 60.3313 50.4408 60.4681 50.3832 60.4993C50.0061 60.6718 49.5978 60.7657 49.1832 60.7753C48.9771 60.7909 48.7701 60.7909 48.564 60.7753H48.5448C48.5448 60.6961 48.5328 60.6217 48.528 60.5473L48.6768 60.5569Z" fill="#F28F8F"/>
<path d="M50.88 58.241C50.9448 58.2722 50.8632 58.385 50.8056 58.3706C50.3597 58.2517 49.8941 58.2255 49.4376 58.2938C49.2354 58.3297 49.0375 58.3868 48.8472 58.4642L48.672 58.5482C48.6936 58.445 48.7176 58.3418 48.7416 58.2386C48.9463 58.1557 49.1596 58.0961 49.3776 58.061C49.8851 57.9667 50.4092 58.0295 50.88 58.241Z" fill="#F28F8F"/>
<path d="M49.9992 59.0761C50.3632 59.062 50.7275 59.0926 51.084 59.1673C51.384 59.2345 51.8232 59.3089 52.02 59.5705C52.02 59.5705 52.02 59.6113 52.008 59.6113C51.8407 59.6063 51.675 59.5772 51.516 59.5249C51.3432 59.4817 51.1704 59.4433 50.9952 59.4169C50.3474 59.3131 49.6846 59.3524 49.0536 59.5321C48.8682 59.5863 48.687 59.6537 48.5112 59.7337C48.5112 59.6113 48.5112 59.4937 48.5328 59.3641C48.6648 59.3161 48.7992 59.2729 48.9288 59.2369C49.2779 59.1405 49.6372 59.0865 49.9992 59.0761Z" fill="#F28F8F"/>
<path d="M49.8936 72.5808C50.0184 72.54 50.148 72.504 50.2752 72.468C50.5392 72.3984 50.8032 72.336 51.072 72.2856C51.0859 72.2821 51.1004 72.2815 51.1145 72.2839C51.1287 72.2863 51.1422 72.2917 51.1541 72.2996C51.1661 72.3075 51.1763 72.3178 51.184 72.3298C51.1918 72.3419 51.197 72.3554 51.1992 72.3696C51.1992 72.4368 51.1368 72.4824 51.0792 72.492C50.8392 72.54 50.5992 72.5928 50.3472 72.6576L49.9944 72.7608L49.8672 72.8016L49.8528 72.5928L49.8936 72.5808Z" fill="#F28F8F"/>
<path d="M50.6928 71.7072C50.4213 71.7879 50.1552 71.8857 49.896 72L49.8096 72.0384L49.788 71.7552L49.8168 71.7408C50.093 71.6301 50.376 71.5371 50.664 71.4624C50.949 71.3885 51.2384 71.3324 51.5304 71.2944C51.8383 71.2349 52.1542 71.2292 52.464 71.2776C52.5216 71.2776 52.4952 71.3808 52.4472 71.3904C52.1424 71.4504 51.8304 71.4672 51.5256 71.52C51.2447 71.5668 50.9667 71.6293 50.6928 71.7072Z" fill="#F28F8F"/>
<path d="M51.1416 70.9512C50.7624 71.0359 50.3882 71.1417 50.0208 71.268C49.932 71.2992 49.8456 71.3352 49.7592 71.3712C49.7592 71.292 49.7448 71.2152 49.74 71.1312L49.9224 71.0616C50.3235 70.9318 50.7356 70.8386 51.1536 70.7832C51.2616 70.776 51.2208 70.9344 51.1416 70.9512Z" fill="#F28F8F"/>
<path d="M50.0424 75.204C51.4488 73.848 52.9224 74.3304 52.9224 74.3304C53.0971 75.4777 53.1622 76.6389 53.1168 77.7984C53.016 79.4208 51.9456 80.2152 51.1272 80.3544C50.3088 80.4936 50.2008 78.8928 50.0424 75.204Z" fill="#FFC4C3"/>
<path opacity="0.3" d="M50.0688 75.8016C50.0688 75.6096 50.052 75.4104 50.0424 75.204C51.4488 73.848 52.9224 74.3304 52.9224 74.3304C52.6416 74.8296 51.0864 75.7056 50.0688 75.8016Z" fill="white"/>
<path d="M53.76 44.1864C54.4104 43.2984 55.3848 42.7752 56.3448 42.2856C56.8873 42.023 57.4131 41.7272 57.9192 41.4C57.948 41.3784 57.9552 41.4408 57.9384 41.4576C57.1776 42.1296 56.2584 42.5976 55.428 43.1592C54.5174 43.7297 53.8122 44.5754 53.4144 45.5736C53.16 46.152 52.9488 46.7472 52.7184 47.3352C52.7016 47.3808 52.6656 47.352 52.6704 47.3136C52.8 46.224 53.1072 45.0816 53.76 44.1864Z" fill="#F28F8F"/>
<path d="M70.224 15.9122C70.1818 15.9765 70.148 16.0458 70.1232 16.1186L70.2528 15.6554C70.2602 15.6278 70.269 15.6005 70.2792 15.5738V15.557C70.2879 15.5288 70.2991 15.5015 70.3128 15.4754L70.332 15.437C70.332 15.4154 70.3536 15.3962 70.368 15.3746L70.4352 15.2786C70.4616 15.2474 70.488 15.2162 70.5168 15.1874C70.7485 14.9708 71.0333 14.8193 71.3424 14.7482C72.5736 14.4242 74.2992 14.8922 75.1968 15.7946C75.317 15.9112 75.4218 16.0427 75.5088 16.1858C75.5263 16.21 75.5415 16.2357 75.5544 16.2626C75.5656 16.2759 75.5738 16.2915 75.5784 16.3082C75.5957 16.338 75.6101 16.3693 75.6216 16.4018C75.669 16.5053 75.7005 16.6153 75.7152 16.7282C75.7356 16.8603 75.7283 16.9952 75.6936 17.1242L75.5472 17.6546C75.5718 17.5664 75.5831 17.475 75.5808 17.3834C75.3444 17.7126 74.9919 17.9399 74.5944 18.0194C73.3632 18.3458 71.6352 17.8778 70.7376 16.9754C70.4364 16.7 70.2525 16.3194 70.224 15.9122Z" fill="#0083C9"/>
<path d="M53.3352 78.1465L58.7856 79.6345L58.9296 79.1017L75.5616 17.6617C75.5862 17.5735 75.5975 17.4821 75.5952 17.3905C75.5615 16.9786 75.3708 16.5954 75.0624 16.3201C74.1648 15.4177 72.4392 14.9521 71.208 15.2785C70.899 15.3471 70.6139 15.4971 70.3824 15.7129C70.3221 15.773 70.269 15.8399 70.224 15.9122C70.1818 15.9764 70.148 16.0458 70.1232 16.1186C70.1232 16.1186 70.1232 16.1449 70.1112 16.1545V16.1689L53.3352 78.1465Z" fill="#F0F0F0"/>
<path d="M54.4368 77.2514C53.2056 77.5754 52.9344 78.5738 53.8344 79.4762C54.7344 80.3786 56.4576 80.8466 57.6888 80.5202C58.92 80.1938 59.1888 79.1978 58.2912 78.2954C57.3936 77.393 55.668 76.925 54.4368 77.2514Z" fill="#0083C9"/>
<path d="M53.484 82.3825C53.484 82.3585 53.484 82.3321 53.484 82.3081L53.316 78.5233V78.4801C53.3148 78.4569 53.3148 78.4337 53.316 78.4105V78.3721C53.328 77.8681 53.7168 77.4385 54.4464 77.2465C55.6776 76.9201 57.4032 77.3881 58.3008 78.2905C58.8216 78.8137 58.9464 79.3705 58.7232 79.8073L58.704 79.8337C58.6808 79.8772 58.6543 79.919 58.6248 79.9585L58.608 79.9849L56.5584 83.1625C56.4242 83.3469 56.2253 83.4737 56.0016 83.5177C55.6134 83.5991 55.2116 83.5875 54.8287 83.4841C54.4458 83.3807 54.0928 83.1883 53.7984 82.9225C53.6353 82.7835 53.5244 82.593 53.484 82.3825Z" fill="#E0E0E0"/>
<path d="M65.1936 41.3018C65.1925 41.2995 65.192 41.2971 65.192 41.2946C65.192 41.2921 65.1925 41.2896 65.1936 41.2874L65.2128 41.213C65.2497 41.1402 65.3029 41.0771 65.3682 41.0283C65.4336 40.9796 65.5094 40.9467 65.5896 40.9322C65.8318 40.8826 66.0822 40.8907 66.3206 40.9557C66.5591 41.0207 66.7789 41.1409 66.9624 41.3066C67.0229 41.3576 67.071 41.4217 67.103 41.494C67.135 41.5664 67.1502 41.6451 67.1472 41.7242L67.1208 41.8202L56.5608 80.8106L54.3312 81.401L65.1936 41.3018Z" fill="#455A64"/>
<path d="M57.4224 77.6763L56.5728 80.8155L54.3432 81.4059L55.4952 77.1531C56.1673 77.1898 56.824 77.3681 57.4224 77.6763Z" fill="#37474F"/>
<path d="M53.712 84.0339L53.5608 80.6019C53.5573 80.5716 53.5573 80.541 53.5608 80.5107C53.5608 80.1459 53.8392 79.8387 54.3624 79.6995C54.8426 79.5999 55.3395 79.615 55.8128 79.7434C56.2861 79.8719 56.7224 80.11 57.0864 80.4387C57.4536 80.8083 57.5448 81.1971 57.3888 81.5067V81.5259L57.336 81.6075L55.44 84.5211C55.364 84.6246 55.2517 84.6957 55.1256 84.7203C54.907 84.7663 54.6805 84.7599 54.4648 84.7015C54.2491 84.6431 54.0504 84.5344 53.8848 84.3843C53.833 84.3412 53.7909 84.2878 53.7611 84.2274C53.7314 84.1671 53.7146 84.1011 53.712 84.0339Z" fill="#0083C9"/>
<path opacity="0.1" d="M53.712 84.0339L53.5608 80.6019C53.5573 80.5716 53.5573 80.541 53.5608 80.5107C53.5608 80.1459 53.8392 79.8387 54.3624 79.6995C54.8426 79.5999 55.3395 79.615 55.8128 79.7434C56.2861 79.8719 56.7224 80.11 57.0864 80.4387C57.4536 80.8083 57.5448 81.1971 57.3888 81.5067V81.5259L57.336 81.6075L55.44 84.5211C55.364 84.6246 55.2517 84.6957 55.1256 84.7203C54.907 84.7663 54.6805 84.7599 54.4648 84.7015C54.2491 84.6431 54.0504 84.5344 53.8848 84.3843C53.833 84.3412 53.7909 84.2878 53.7611 84.2274C53.7314 84.1671 53.7146 84.1011 53.712 84.0339Z" fill="black"/>
<path d="M53.8776 84.3865C54.044 84.5359 54.2433 84.6439 54.4593 84.7019C54.6753 84.7599 54.9019 84.7661 55.1208 84.7201C55.2463 84.6957 55.3578 84.6245 55.4328 84.5209L56.3928 83.0473C56.544 82.8073 56.4888 82.5121 56.2032 82.2217C55.9377 81.9827 55.6197 81.8096 55.2749 81.7162C54.9301 81.6228 54.5682 81.6118 54.2184 81.6841C53.844 81.7825 53.6424 82.0033 53.6376 82.2649V82.3345L53.712 84.0337C53.7145 84.1006 53.7305 84.1663 53.7589 84.2269C53.7874 84.2876 53.8277 84.3418 53.8776 84.3865Z" fill="#0083C9"/>
<path opacity="0.1" d="M54.072 83.6691C53.676 83.7747 53.592 84.0939 53.8776 84.3891C54.0431 84.5392 54.2419 84.6479 54.4576 84.7063C54.6733 84.7647 54.8997 84.7712 55.1184 84.7251C55.5144 84.6219 55.5984 84.3003 55.3128 84.0051C55.1471 83.8553 54.9483 83.7469 54.7327 83.6885C54.517 83.6301 54.2907 83.6234 54.072 83.6691Z" fill="black"/>
<path d="M70.3032 22.4162C70.3325 22.3327 70.3843 22.2589 70.4529 22.203C70.5216 22.1471 70.6043 22.1113 70.692 22.0994C70.9326 22.0489 71.1818 22.056 71.4192 22.1203C71.6565 22.1845 71.8753 22.304 72.0576 22.469C72.1278 22.5255 72.1811 22.6001 72.212 22.6847C72.2429 22.7692 72.2501 22.8607 72.2328 22.949L67.1496 41.7314C67.1525 41.6524 67.1374 41.5737 67.1054 41.5013C67.0734 41.4289 67.0253 41.3648 66.9648 41.3138C66.7813 41.1482 66.5615 41.028 66.323 40.963C66.0846 40.8979 65.8342 40.8899 65.592 40.9394C65.5118 40.954 65.436 40.9869 65.3706 41.0356C65.3053 41.0843 65.2521 41.1475 65.2152 41.2202L70.3032 22.4162Z" fill="#FAFAFA"/>
<path d="M70.4784 22.8865C70.661 23.051 70.8798 23.1702 71.1171 23.2345C71.3543 23.2987 71.6033 23.3061 71.844 23.2561C71.9306 23.2437 72.0121 23.2078 72.0798 23.1524C72.1475 23.097 72.1987 23.0241 72.228 22.9417C72.2475 22.8538 72.2419 22.7621 72.2117 22.6773C72.1816 22.5924 72.1282 22.5177 72.0576 22.4617C71.8753 22.2967 71.6565 22.1772 71.4192 22.1129C71.1818 22.0487 70.9326 22.0416 70.692 22.0921C70.6043 22.1039 70.5216 22.1398 70.4529 22.1957C70.3843 22.2516 70.3325 22.3254 70.3032 22.4089C70.2866 22.4969 70.2942 22.5878 70.325 22.6718C70.3559 22.7559 70.4089 22.8301 70.4784 22.8865Z" fill="#F5F5F5"/>
<path d="M69.468 19.6274V19.6034C69.4669 19.5914 69.4669 19.5794 69.468 19.5674L70.3584 16.2866C70.3642 16.2606 70.3714 16.235 70.38 16.2098V16.1906C70.4952 15.8546 70.824 15.5786 71.34 15.4394C71.9513 15.3124 72.584 15.3314 73.1865 15.4949C73.7891 15.6584 74.3447 15.9617 74.808 16.3802C75.216 16.7882 75.3552 17.2178 75.2544 17.5802L74.352 20.9042C74.353 20.9097 74.353 20.9154 74.352 20.921V20.9402C74.244 21.2906 73.9128 21.5762 73.3728 21.7202C72.7615 21.8468 72.1289 21.8276 71.5264 21.6641C70.9239 21.5007 70.3683 21.1976 69.9048 20.7794C69.5352 20.4002 69.3912 19.9826 69.468 19.6274Z" fill="#0083C9"/>
<path opacity="0.05" d="M69.468 19.6274V19.6034C69.4669 19.5914 69.4669 19.5794 69.468 19.5674L70.3584 16.2866C70.3642 16.2606 70.3714 16.235 70.38 16.2098V16.1906C70.4952 15.8546 70.824 15.5786 71.34 15.4394C71.9513 15.3124 72.584 15.3314 73.1865 15.4949C73.7891 15.6584 74.3447 15.9617 74.808 16.3802C75.216 16.7882 75.3552 17.2178 75.2544 17.5802L74.352 20.9042C74.353 20.9097 74.353 20.9154 74.352 20.921V20.9402C74.244 21.2906 73.9128 21.5762 73.3728 21.7202C72.7615 21.8468 72.1289 21.8276 71.5264 21.6641C70.9239 21.5007 70.3683 21.1976 69.9048 20.7794C69.5352 20.4002 69.3912 19.9826 69.468 19.6274Z" fill="black"/>
<path opacity="0.1" d="M70.4664 18.7778C69.3576 19.0706 69.1152 19.9778 69.924 20.7818C70.3875 21.1999 70.9431 21.503 71.5456 21.6665C72.1481 21.8299 72.7807 21.8491 73.392 21.7226C74.5008 21.4274 74.7432 20.5226 73.9344 19.7186C73.4711 19.3001 72.9155 18.9968 72.3129 18.8333C71.7104 18.6698 71.0777 18.6508 70.4664 18.7778Z" fill="black"/>
<path d="M53.796 85.4594L54.144 84.0818C54.1566 84.0412 54.1805 84.0051 54.2127 83.9775C54.245 83.9499 54.2844 83.932 54.3264 83.9258C54.4385 83.903 54.5545 83.9068 54.6649 83.9368C54.7753 83.9668 54.8772 84.0222 54.9624 84.0986C54.9934 84.125 55.0172 84.159 55.0315 84.1972C55.0458 84.2354 55.0501 84.2766 55.044 84.317L54.7008 85.6946C54.6784 85.7701 54.6371 85.8387 54.5808 85.8938C54.509 85.9655 54.4159 86.0119 54.3155 86.0261C54.2151 86.0403 54.1127 86.0214 54.0239 85.9724C53.9351 85.9234 53.8647 85.8469 53.8231 85.7544C53.7816 85.6618 53.7712 85.5583 53.7936 85.4594H53.796Z" fill="#455A64"/>
<path d="M53.7864 85.5482C53.7829 85.5211 53.7829 85.4937 53.7864 85.4666C53.8054 85.4345 53.8311 85.407 53.8617 85.3858C53.8924 85.3647 53.9273 85.3505 53.964 85.3442C54.0761 85.3203 54.1923 85.3235 54.3029 85.3536C54.4136 85.3836 54.5154 85.4397 54.6 85.517C54.6314 85.542 54.6553 85.5752 54.6693 85.6128C54.6832 85.6504 54.6867 85.6912 54.6792 85.7306C54.6806 85.7393 54.6806 85.7483 54.6792 85.757C54.6798 85.765 54.6798 85.773 54.6792 85.781C54.6586 85.8283 54.6283 85.8708 54.5904 85.9058C54.5011 85.9909 54.3825 86.0384 54.2592 86.0384C54.1359 86.0384 54.0173 85.9909 53.928 85.9058C53.8794 85.8604 53.8414 85.8048 53.817 85.7429C53.7925 85.6811 53.782 85.6146 53.7864 85.5482Z" fill="#263238"/>
<path d="M54.5448 40.3682C51.2208 41.8346 50.8296 43.661 50.2416 46.025C49.6536 48.389 47.4048 53.4242 46.524 55.6994C45.6432 57.9746 45.4488 58.5578 46.3296 61.6394C47.2104 64.721 49.7064 70.7594 49.7064 70.7594C49.7064 70.7594 57.1872 47.0762 57.6744 44.6402C58.1616 42.2042 57.8712 39.4922 54.5448 40.3682Z" fill="#FFA8A7"/>
<path d="M47.0712 60.0553C47.0748 60.0615 47.0767 60.0685 47.0767 60.0757C47.0767 60.0829 47.0748 60.0899 47.0712 60.0961C46.9656 60.1297 46.8048 60.0577 46.6992 60.0385C46.5936 60.0193 46.4304 59.9857 46.296 59.9665C46.1616 59.9473 46.032 59.9353 45.8928 59.9281C45.876 59.8393 45.8616 59.7529 45.8472 59.6713C46.1869 59.711 46.5205 59.7916 46.8408 59.9113C46.9314 59.9325 47.0125 59.9831 47.0712 60.0553ZM47.0856 58.4473C46.7541 58.3222 46.4108 58.2314 46.0608 58.1761C45.9693 58.164 45.8771 58.1568 45.7848 58.1545C45.7848 58.0633 45.8064 57.9721 45.8232 57.8833C45.924 57.8833 46.0224 57.8977 46.1232 57.9121C46.502 57.9549 46.8679 58.075 47.1984 58.2649C47.3064 58.3201 47.1864 58.4809 47.0856 58.4473ZM45.972 58.8001C46.1844 58.8093 46.396 58.8317 46.6056 58.8673C47.0375 58.9295 47.4541 59.0711 47.8344 59.2849C47.9256 59.3401 47.8032 59.4625 47.724 59.4361C47.3664 59.299 46.999 59.1891 46.6248 59.1073C46.4449 59.0731 46.2629 59.0507 46.08 59.0401C45.9864 59.0401 45.8832 59.0401 45.7824 59.0401C45.7824 58.9561 45.7704 58.8769 45.768 58.8001C45.84 58.8001 45.9048 58.8001 45.972 58.8001Z" fill="#F28F8F"/>
<path d="M49.2456 55.1617C50.6033 52.505 51.7858 49.7623 52.7856 46.9513L55.776 46.0249L56.7672 47.9305C54.6576 55.0801 49.7064 70.7569 49.7064 70.7569C49.7064 70.7569 49.3368 69.8617 48.8304 68.5969C48.8304 68.5969 48.1632 63.0577 47.8704 60.5785C47.5776 58.0993 48.2832 56.9689 49.2456 55.1617Z" fill="#F28F8F"/>
<path d="M60.024 68.7602C60.2088 68.6354 60.3936 68.5202 60.576 68.3786C63.0504 66.5594 65.6856 64.685 67.2 61.9202L76.32 65.7314C74.7655 67.442 73.1098 69.0577 71.3616 70.5698C69.8856 71.909 65.3976 73.7474 62.4816 75.2138C59.5656 76.6802 58.3416 77.4074 57.6072 76.9946C56.748 76.5338 55.6944 71.7026 60.024 68.7602Z" fill="#FFA8A7"/>
<path d="M70.5408 71.1771C70.5096 71.0715 70.4784 70.9683 70.44 70.8651C70.3599 70.6505 70.2678 70.4405 70.164 70.2363C70.0401 70.0414 69.9356 69.8348 69.852 69.6195C69.84 69.5667 69.912 69.4779 69.9648 69.5187C70.1539 69.693 70.3071 69.9025 70.416 70.1355C70.545 70.3712 70.655 70.6167 70.7448 70.8699C70.7616 70.9155 70.7736 70.9635 70.7904 71.0091L70.5408 71.1771Z" fill="#F28F8F"/>
<path d="M69.588 71.6594C69.4915 71.3 69.3613 70.9504 69.1992 70.6154C69.0593 70.3322 68.8878 70.0657 68.688 69.821C68.5489 69.6469 68.3938 69.4862 68.2248 69.341C68.0856 69.2282 67.9392 69.1274 67.812 69.0026C67.7784 68.969 67.8264 68.8802 67.8744 68.8922C68.2286 69.0036 68.5468 69.2074 68.796 69.4826C69.065 69.7506 69.2938 70.0562 69.4752 70.3898C69.6712 70.7532 69.8242 71.1382 69.9312 71.537L69.6072 71.7242C69.6 71.7122 69.6 71.6858 69.588 71.6594Z" fill="#F28F8F"/>
<path d="M68.5896 71.5801C68.4901 71.3045 68.3706 71.0366 68.232 70.7785C68.1724 70.6677 68.1067 70.5604 68.0352 70.4569C67.9508 70.3619 67.8849 70.252 67.8408 70.1329C67.8408 70.0801 67.9032 69.9961 67.9584 70.0249C68.1998 70.202 68.3956 70.434 68.5296 70.7017C68.6806 70.9521 68.8107 71.2146 68.9184 71.4865C68.9856 71.6593 69.0456 71.8345 69.1008 72.0121L68.7888 72.1777C68.7264 71.9761 68.664 71.7769 68.5896 71.5801Z" fill="#F28F8F"/>
<path d="M63.696 74.6161C63.5667 73.7014 63.1239 72.8599 62.4432 72.2354C62.4432 72.2354 60.3528 73.1114 59.46 73.9154C58.5672 74.7194 57.8784 76.4929 58.4352 77.0617C59.7144 77.0665 61.44 75.8065 63.696 74.6161Z" fill="#FFC4C3"/>
<path opacity="0.3" d="M63.696 74.6161C63.432 74.7553 63.1776 74.8946 62.928 75.0338C62.6549 74.1239 62.4938 73.1842 62.448 72.2354C63.1269 72.8607 63.568 73.7021 63.696 74.6161Z" fill="white"/>
<path d="M59.8512 54.089C58.3872 56.489 56.136 60.809 56.1096 61.3658C55.9608 64.517 56.1408 67.8098 56.1408 71.2178C56.1408 74.6258 56.1696 77.1146 54.6744 79.3778C53.3208 81.4178 50.8344 81.9794 50.4816 79.7498C50.1744 77.8418 49.9824 73.9586 49.7064 70.7642C49.4304 67.5698 48.6984 62.9426 48.5064 60.3578C48.3144 57.773 50.0136 55.2362 51.1584 51.893C52.152 48.9866 52.9944 45.3146 54.552 43.757C56.1096 42.1994 62.004 39.281 64.152 38.1482L59.8512 54.089Z" fill="#FFA8A7"/>
<path d="M48.6768 60.5571C48.8614 60.5703 49.0466 60.5703 49.2312 60.5571C49.6152 60.5183 49.9956 60.4493 50.3688 60.3507C50.4648 60.3315 50.4408 60.4683 50.3832 60.4995C50.0061 60.672 49.5978 60.7659 49.1832 60.7755C48.9771 60.7911 48.7701 60.7911 48.564 60.7755H48.5448C48.5448 60.6963 48.5328 60.6219 48.528 60.5475L48.6768 60.5571Z" fill="#F28F8F"/>
<path d="M50.88 58.241C50.9448 58.2722 50.8632 58.385 50.8056 58.3706C50.3597 58.2517 49.8941 58.2255 49.4376 58.2938C49.2354 58.3297 49.0375 58.3868 48.8472 58.4642L48.672 58.5482C48.6936 58.445 48.7176 58.3418 48.7416 58.2386C48.9463 58.1557 49.1596 58.0961 49.3776 58.061C49.8851 57.9667 50.4092 58.0295 50.88 58.241Z" fill="#F28F8F"/>
<path d="M49.9992 59.0761C50.3632 59.062 50.7275 59.0926 51.084 59.1673C51.384 59.2345 51.8232 59.3089 52.02 59.5705C52.02 59.5705 52.02 59.6113 52.008 59.6113C51.8407 59.6063 51.675 59.5772 51.516 59.5249C51.3432 59.4817 51.1704 59.4433 50.9952 59.4169C50.3474 59.3131 49.6846 59.3524 49.0536 59.5321C48.8682 59.5863 48.687 59.6537 48.5112 59.7337C48.5112 59.6113 48.5112 59.4937 48.5328 59.3641C48.6648 59.3161 48.7992 59.2729 48.9288 59.2369C49.2779 59.1405 49.6372 59.0865 49.9992 59.0761Z" fill="#F28F8F"/>
<path d="M49.8936 72.5811C50.0184 72.5403 50.148 72.5043 50.2752 72.4683C50.5392 72.3987 50.8032 72.3363 51.072 72.2859C51.0859 72.2823 51.1004 72.2818 51.1145 72.2842C51.1287 72.2866 51.1422 72.2919 51.1541 72.2998C51.1661 72.3077 51.1763 72.318 51.184 72.3301C51.1918 72.3421 51.197 72.3557 51.1992 72.3699C51.1992 72.4371 51.1368 72.4827 51.0792 72.4923C50.8392 72.5403 50.5992 72.5931 50.3472 72.6579L49.9944 72.7611L49.8672 72.8019L49.8528 72.5931L49.8936 72.5811Z" fill="#F28F8F"/>
<path d="M50.6928 71.7075C50.4213 71.7882 50.1552 71.886 49.896 72.0003L49.8096 72.0387L49.788 71.7555L49.8168 71.7411C50.093 71.6304 50.376 71.5374 50.664 71.4627C50.949 71.3887 51.2384 71.3326 51.5304 71.2947C51.8383 71.2351 52.1542 71.2295 52.464 71.2779C52.5216 71.2779 52.4952 71.3811 52.4472 71.3907C52.1424 71.4507 51.8304 71.4675 51.5256 71.5203C51.2447 71.567 50.9667 71.6295 50.6928 71.7075Z" fill="#F28F8F"/>
<path d="M51.1416 70.9514C50.7624 71.0362 50.3883 71.142 50.0208 71.2682C49.932 71.2994 49.8456 71.3354 49.7592 71.3714C49.7592 71.2922 49.7448 71.2154 49.74 71.1314L49.9224 71.0618C50.3236 70.932 50.7356 70.8388 51.1536 70.7834C51.2616 70.7762 51.2208 70.9346 51.1416 70.9514Z" fill="#F28F8F"/>
<path d="M50.0424 75.2043C51.4488 73.8483 52.9224 74.3307 52.9224 74.3307C53.0971 75.4779 53.1622 76.6391 53.1168 77.7987C53.016 79.4211 51.9456 80.2155 51.1272 80.3547C50.3088 80.4939 50.2008 78.8931 50.0424 75.2043Z" fill="#FFC4C3"/>
<path opacity="0.3" d="M50.0688 75.8019C50.0688 75.6099 50.052 75.4107 50.0424 75.2043C51.4488 73.8483 52.9224 74.3307 52.9224 74.3307C52.6416 74.8299 51.0864 75.7059 50.0688 75.8019Z" fill="white"/>
<path d="M53.76 44.1866C54.4104 43.2986 55.3848 42.7754 56.3448 42.2858C56.8873 42.0232 57.4131 41.7275 57.9192 41.4002C57.948 41.3786 57.9552 41.441 57.9384 41.4578C57.1776 42.1298 56.2584 42.5978 55.428 43.1594C54.5174 43.73 53.8122 44.5756 53.4144 45.5738C53.16 46.1522 52.9488 46.7474 52.7184 47.3354C52.7016 47.381 52.6656 47.3522 52.6704 47.3138C52.8 46.2242 53.1072 45.0818 53.76 44.1866Z" fill="#F28F8F"/>
</svg>
