<svg width="294" height="188" viewBox="0 0 294 188" fill="none" xmlns="http://www.w3.org/2000/svg">
<path d="M0 80C0 35.8172 35.8172 0 80 0H214C258.183 0 294 35.8172 294 80V102C294 146.183 258.183 182 214 182H80C35.8172 182 0 146.183 0 102V80Z" fill="#A394F1"/>
<path d="M91.0304 132.296L80.8696 150.992L81.7063 105.597C81.8974 102.713 82.8707 99.9357 84.5215 97.5635C85.2215 96.4987 86.0418 95.518 86.9661 94.6408C88.1615 93.6307 89.7573 92.3516 90.8511 91.9213C92.2079 91.3833 92.2497 89.5006 90.9886 89.1718C89.7274 88.8431 85.95 90.2298 82.6626 93.6008C79.3753 96.9718 80.1164 89.6859 80.3436 87.0261C80.5707 84.3664 80.8755 76.1181 80.1105 75.4248C78.9928 74.4027 77.6599 75.4248 77.4985 78.1025C77.3371 80.7802 76.3031 88.7116 74.8866 88.5622C73.47 88.4128 74.8388 74.8928 74.8388 74.8928C74.8388 74.8928 75.5919 72.0358 73.9841 71.8087C71.0792 71.3963 70.7266 85.8486 70.7266 87.2293C70.7266 88.1856 69.2025 88.0781 69.2563 87.05C69.3101 86.022 70.894 73.5779 67.9413 73.1356C65.676 72.7949 67.5409 85.0238 65.7836 87.4804C64.0264 89.9369 65.3174 78.0367 63.1358 77.7976C62.3289 77.708 61.7073 77.7558 61.9404 84.6532C62.0719 88.365 63.7335 93.9116 63.4347 101.072L63.363 102.925C61.6476 116.319 53.9193 186.591 80.5229 184.684C80.5229 184.684 100.707 181.881 111.926 145.146L91.0304 132.296Z" fill="#FFBE9D"/>
<path d="M68.264 97.9939C68.264 98.0597 68.7123 98.1135 69.3758 98.4601C70.2701 98.9214 70.9682 99.6896 71.3422 100.624L71.5514 101.156L71.7845 100.636C72.1196 99.8937 72.5875 99.2192 73.1652 98.6454C74.278 97.5133 75.7074 96.7445 77.2654 96.4399C78.4608 96.1948 79.2378 96.3323 79.2497 96.2367C78.5961 95.9956 77.8882 95.9418 77.2056 96.0813C75.5289 96.2987 73.9746 97.0759 72.7946 98.2868C72.1805 98.9082 71.6897 99.6403 71.3482 100.444H71.7905C71.5761 99.9366 71.2636 99.4761 70.8707 99.0894C70.4779 98.7027 70.0125 98.3974 69.5013 98.1912C69.1204 97.9952 68.6869 97.9261 68.264 97.9939Z" fill="#EB996E"/>
<path d="M212.375 141.028L223.678 162.318L234 182.174H210.66L196.196 152.366" fill="#FFBE9D"/>
<path d="M123.85 182.174C126.073 174.601 124.615 173.405 122.224 165.886L117.084 149.749L105.835 166.365L81.9214 147.143L89.8529 129.253C104.67 95.6748 128.703 98.0596 128.703 98.0596L159.329 92.2141C159.329 92.2141 178.922 90.421 191.605 101.933C195.741 105.686 214.527 139.504 214.527 139.504L191.444 155.678L185.784 146.025L184.218 159.144C182.986 166.317 183.064 175.444 185.784 182.174" fill="#455A64"/>
<path d="M121.184 109.488C121.184 109.571 116.146 110.683 109.9 111.968C103.654 113.253 98.5435 114.227 98.5435 114.144C98.5435 114.06 103.576 112.948 109.828 111.663C116.08 110.378 121.166 109.392 121.184 109.488Z" fill="#FAFAFA"/>
<path d="M188.527 99.8169C188.527 99.9066 183.584 100.893 177.446 102.022C171.307 103.152 166.323 104.007 166.305 103.917C166.287 103.827 171.254 102.847 177.392 101.718C183.53 100.588 188.515 99.7333 188.527 99.8169Z" fill="#FAFAFA"/>
<path d="M197.965 110.749C197.965 110.832 190.272 112.542 180.745 114.616C171.218 116.69 163.483 118.262 163.466 118.202C163.448 118.142 171.152 116.409 180.679 114.335C190.207 112.261 197.923 110.683 197.965 110.749Z" fill="#FAFAFA"/>
<path d="M207.402 127.598L207.08 127.664L206.135 127.831L202.483 128.429L189.053 130.628L144.716 137.741C127.382 140.484 111.705 142.929 100.337 144.638C94.6584 145.499 90.0561 146.168 86.8704 146.611C85.2805 146.826 84.0433 146.987 83.2005 147.077C82.7807 147.168 82.3489 147.193 81.9214 147.149C82.3488 147.142 82.7748 147.098 83.1945 147.017L86.8525 146.491L100.307 144.423L144.668 137.43L188.999 130.407L202.447 128.303L206.105 127.747L207.062 127.61L207.402 127.598Z" fill="#FAFAFA"/>
<path d="M184.851 153.765C184.851 153.849 170.614 155.779 153.036 158.069C135.457 160.358 121.196 162.145 121.184 162.061C121.172 161.978 135.416 160.053 153 157.758C170.584 155.463 184.815 153.681 184.851 153.765Z" fill="#FAFAFA"/>
<path d="M182.132 176.143C182.132 176.233 169.389 176.221 153.681 176.143C137.974 176.065 125.225 175.904 125.225 175.814C125.225 175.725 137.962 175.737 153.681 175.814C169.401 175.892 182.132 176.059 182.132 176.143Z" fill="#FAFAFA"/>
<path d="M129.941 123.318C129.807 123.362 129.668 123.392 129.528 123.408L128.333 123.605L123.97 124.299C120.282 124.896 115.195 125.739 109.625 126.785C104.054 127.831 98.9738 128.877 95.3219 129.66L90.9766 130.586L89.7812 130.831C89.6446 130.869 89.5043 130.891 89.3629 130.897C89.4918 130.842 89.626 130.8 89.7633 130.772L90.9766 130.467C91.9927 130.216 93.4631 129.869 95.2801 129.445C98.9201 128.602 103.965 127.526 109.571 126.456C115.177 125.386 120.27 124.597 123.964 124.065C125.817 123.797 127.311 123.593 128.351 123.468L129.546 123.33C129.677 123.313 129.809 123.309 129.941 123.318Z" fill="#FAFAFA"/>
<path d="M156.233 26.8677C155.498 35.7256 167.369 42.0134 166.311 50.8354C166.018 53.286 164.745 55.9517 166.042 58.0556C167.596 60.5839 171.379 60.0519 174.14 61.1457C177.541 62.4905 179.281 66.5848 178.767 70.2008C178.253 73.8169 175.91 76.9429 173.154 79.3516C168.804 83.1546 163.367 85.4906 157.614 86.0279C154.948 86.267 152.163 86.0757 149.784 84.8325C147.405 83.5893 145.523 81.1925 145.511 78.5148" fill="#263238"/>
<path d="M157.405 97.2947C155.827 89.7338 154.303 81.7545 154.303 81.7545C154.303 81.7545 163.693 78.0727 163.017 64.9532C162.378 52.4374 154.458 24.9074 154.458 24.9074C139.247 22.1639 123.462 29.4797 115.847 42.8383L129.672 104.007C131.274 111.107 138.637 115.363 146.246 113.612C153.914 111.783 158.905 104.497 157.405 97.2947Z" fill="#FFBE9D"/>
<path d="M155.486 47.5063C155.578 47.9299 155.502 48.3727 155.273 48.7408C155.045 49.109 154.682 49.3737 154.261 49.4788C154.057 49.5395 153.844 49.5589 153.632 49.5356C153.421 49.5123 153.217 49.447 153.031 49.3433C152.845 49.2397 152.683 49.0999 152.552 48.9322C152.421 48.7645 152.326 48.5723 152.271 48.367C152.176 47.9467 152.247 47.5059 152.47 47.1371C152.693 46.7683 153.05 46.5001 153.466 46.3886C153.672 46.3242 153.889 46.3022 154.104 46.3239C154.318 46.3457 154.526 46.4108 154.715 46.5153C154.904 46.6197 155.07 46.7614 155.202 46.9318C155.335 47.1021 155.431 47.2976 155.486 47.5063Z" fill="#263238"/>
<path d="M157.321 45.8626C157.166 46.1196 155.737 45.4681 153.986 45.8626C152.235 46.2571 151.135 47.3867 150.902 47.2134C150.788 47.1357 150.902 46.7113 151.386 46.1854C152.026 45.5017 152.861 45.0321 153.777 44.8405C154.686 44.6439 155.635 44.7423 156.484 45.1215C157.118 45.4024 157.381 45.749 157.321 45.8626Z" fill="#263238"/>
<path d="M137.597 51.6125C137.692 52.0328 137.621 52.4735 137.398 52.8424C137.175 53.2112 136.818 53.4794 136.402 53.5908C136.198 53.6507 135.984 53.6691 135.772 53.6451C135.561 53.6211 135.357 53.555 135.171 53.4509C134.986 53.3468 134.823 53.2067 134.693 53.0387C134.562 52.8708 134.467 52.6785 134.411 52.4731C134.317 52.0536 134.388 51.6136 134.611 51.2458C134.834 50.8779 135.191 50.6108 135.607 50.5007C135.81 50.4399 136.024 50.4206 136.236 50.4439C136.447 50.4671 136.651 50.5325 136.837 50.6362C137.022 50.7398 137.185 50.8796 137.316 51.0473C137.446 51.215 137.542 51.4072 137.597 51.6125Z" fill="#263238"/>
<path d="M139.39 49.951C139.235 50.202 137.806 49.5505 136.055 49.951C134.304 50.3514 133.21 51.4751 132.971 51.3018C132.857 51.23 132.971 50.7997 133.455 50.2737C134.097 49.5934 134.931 49.1244 135.846 48.9289C136.757 48.7347 137.707 48.833 138.559 49.2098C139.217 49.4907 139.486 49.8314 139.39 49.951Z" fill="#263238"/>
<path d="M148.702 61.2773C148.672 61.1757 149.724 60.7573 151.44 60.1596C151.876 60.0162 152.283 59.8428 152.295 59.5201C152.227 59.049 152.019 58.6093 151.697 58.2589L149.653 55.133C146.784 50.6682 144.608 46.9624 144.793 46.8489C144.979 46.7353 147.441 50.2617 150.304 54.7206L152.301 57.8764C152.692 58.3597 152.903 58.964 152.898 59.5858C152.867 59.757 152.796 59.9187 152.693 60.0585C152.589 60.1984 152.455 60.3127 152.301 60.3927C152.068 60.5131 151.821 60.6034 151.565 60.6617C149.832 61.1339 148.732 61.3729 148.702 61.2773Z" fill="#263238"/>
<path d="M154.333 81.7544C148.384 83.1031 142.177 82.7783 136.402 80.816C136.402 80.816 142.379 88.6638 154.829 84.7848L154.333 81.7544Z" fill="#EB996E"/>
<path d="M148.858 65.6525C148.435 65.304 147.931 65.0689 147.392 64.9696C146.854 64.8702 146.299 64.9098 145.78 65.0846C145.4 65.1994 145.047 65.3907 144.744 65.6466C144.441 65.9025 144.193 66.2178 144.016 66.5729C143.843 66.9135 143.778 67.2994 143.831 67.6781C143.885 68.0567 144.054 68.4097 144.315 68.6888C144.66 68.9381 145.071 69.0801 145.496 69.0971C145.922 69.1141 146.342 69.0054 146.706 68.7844C147.471 68.3212 148.137 67.7119 148.667 66.9913C148.831 66.8168 148.962 66.6144 149.055 66.3936C149.1 66.2823 149.11 66.16 149.085 66.0428C149.059 65.9255 148.999 65.8187 148.912 65.7361" fill="#B82310"/>
<path d="M143.801 63.5785C144.088 63.5008 144.495 65.4015 146.407 66.4116C148.32 67.4217 150.298 66.7762 150.37 67.0093C150.424 67.1228 149.999 67.4755 149.145 67.6787C148.034 67.9318 146.869 67.7836 145.857 67.2603C144.886 66.762 144.149 65.9041 143.801 64.8695C143.574 64.1104 143.67 63.5964 143.801 63.5785Z" fill="#263238"/>
<path d="M123.479 55.8142C122.056 55.8112 120.66 56.2022 119.445 56.9439C118.236 57.6988 117.376 58.9026 117.054 60.291C116.802 61.7014 117.097 63.1549 117.879 64.3553C118.66 65.5442 119.698 66.5429 120.915 67.2781C121.75 67.8665 122.713 68.2476 123.725 68.3898C124.231 68.4576 124.746 68.3986 125.224 68.2181C125.701 68.0377 126.127 67.7413 126.462 67.3558" fill="#FFBE9D"/>
<path d="M124.448 64.2059C124.615 64.2059 124.197 65.1682 122.888 65.0965C122.179 65.008 121.535 64.6427 121.095 64.0804C120.575 63.46 120.183 62.743 119.941 61.9705C119.662 61.1527 119.686 60.2622 120.007 59.4602C120.14 59.1184 120.35 58.8117 120.62 58.564C120.891 58.3163 121.215 58.1342 121.567 58.0317C122.84 57.7328 123.42 58.5337 123.282 58.5875C123.145 58.6413 122.607 58.3604 121.818 58.737C121.029 59.1135 120.491 60.3268 120.957 61.6597C121.423 62.9926 122.212 64.188 123.025 64.3493C123.838 64.5107 124.364 64.1103 124.448 64.2059Z" fill="#EB996E"/>
<path d="M150.746 22.1041C151.67 23.9203 151.98 25.9866 151.631 27.9939C151.282 30.0011 150.292 31.8413 148.81 33.2392C145.774 35.9707 141.375 36.3592 137.454 37.5008C133.533 38.6424 129.331 41.5293 129.51 45.6116C129.618 48.0861 131.375 50.4649 130.741 52.8557C130.006 55.6589 126.426 56.8543 125.416 59.5678C123.796 63.931 129.725 67.8579 129.462 72.502C129.307 75.2574 126.976 77.5048 126.719 80.2721C126.348 84.1811 130.186 88.3351 128.052 91.6284C126.414 94.1627 122.601 93.7981 119.804 92.6983C117.006 91.5985 113.946 90.0326 111.143 91.1323C109.457 91.7898 108.268 93.296 106.768 94.3121C105.398 95.242 103.783 95.7445 102.127 95.7561C100.471 95.7677 98.8494 95.2878 97.4665 94.3772C96.0836 93.4666 95.002 92.1662 94.3585 90.6406C93.715 89.115 93.5386 87.4327 93.8515 85.8068C94.3058 83.416 95.7522 81.3659 96.9177 79.2321C98.0832 77.0984 99.0097 74.606 98.3104 72.2809C97.7665 70.4878 96.3678 69.137 95.2561 67.6428C94.1444 66.1485 93.2777 64.1821 93.995 62.4667C95.2501 59.4483 100.062 59.7113 101.807 56.9499C104.198 53.1545 98.6511 48.3251 100.074 44.0695C101.687 39.2521 110.234 40.1128 111.86 35.2953C112.458 33.544 111.86 31.6135 112.022 29.7726C112.446 25.5887 116.863 22.8691 121.029 22.1459C125.195 21.4227 129.546 21.9606 133.634 20.8848C135.87 20.2871 137.962 19.2292 140.161 18.494C142.361 17.7588 144.799 17.3942 146.975 18.2011C149.151 19.008 150.89 21.2852 150.454 23.5804" fill="#263238"/>
<path d="M148.864 31.0816C150.074 33.1749 151.746 34.9635 153.754 36.3103C155.762 37.6571 158.052 38.5265 160.447 38.8517C160.37 35.648 160.202 32.4204 159.336 29.3423C158.469 26.2641 156.843 23.2816 154.333 21.3271C151.822 19.3727 148.272 18.5598 145.296 19.7253" fill="#263238"/>
<path d="M164.254 92.5189C165.336 92.6623 171.385 128.142 148.164 132.081C126.187 135.816 119.391 99.3625 119.391 99.3625C119.391 99.3625 134.196 88.5024 164.254 92.5189Z" fill="#FFBE9D"/>
<path d="M150.95 43.944C151.087 44.201 152.283 43.8185 153.771 43.6511C155.259 43.4838 156.502 43.5675 156.574 43.2865C156.646 43.0056 155.379 42.4318 153.651 42.6351C151.924 42.8383 150.812 43.7408 150.95 43.944Z" fill="#263238"/>
<path d="M133.204 46.6935C133.258 46.6457 133.252 46.5441 133.204 46.3827V46.6517C134.062 46.2156 134.969 45.8825 135.906 45.6595C137.555 45.3009 138.954 45.6954 139.068 45.4264C139.115 45.3009 138.816 45.02 138.207 44.8287C137.401 44.5542 136.535 44.5046 135.702 44.6852C135.152 44.7694 134.624 44.9649 134.151 45.2598C133.678 45.5547 133.271 45.9429 132.953 46.4006L132.845 46.6158L132.935 46.6636C133.055 46.7294 133.156 46.7294 133.204 46.6935Z" fill="#263238"/>
<path d="M123.175 45.6594C121.819 45.676 120.465 45.5901 119.122 45.4024C117.771 45.3196 116.428 45.1297 115.106 44.8346C116.461 44.8182 117.816 44.9041 119.158 45.0916C120.509 45.1793 121.852 45.3691 123.175 45.6594Z" fill="#B82310"/>
<path d="M121.202 47.9248C120.196 48.1441 119.161 48.2006 118.136 48.0921C117.108 48.0896 116.087 47.9221 115.112 47.596C115.112 47.5123 116.481 47.6917 118.154 47.7813C119.828 47.871 121.196 47.8291 121.202 47.9248Z" fill="#B82310"/>
<path d="M150.944 29.3422C150.92 29.4702 150.88 29.5948 150.824 29.7127C150.678 30.0582 150.476 30.3773 150.227 30.6571C149.229 31.6313 147.913 32.2128 146.521 32.2948C145.576 32.4004 144.622 32.3843 143.682 32.247C142.672 32.1215 141.602 31.9362 140.478 31.8525C139.311 31.7198 138.129 31.8484 137.017 32.229C135.861 32.7283 134.861 33.5318 134.125 34.5541C133.306 35.5702 132.618 36.658 131.811 37.6203C131.414 38.0958 130.971 38.5321 130.491 38.9233C130.018 39.2883 129.5 39.5898 128.948 39.8198C127.927 40.1996 126.87 40.474 125.793 40.6387C124.87 40.78 123.96 40.9979 123.073 41.2902C121.788 41.6935 120.688 42.541 119.971 43.681C119.75 44.1216 119.614 44.6002 119.571 45.0915C119.554 44.9626 119.554 44.832 119.571 44.703C119.608 44.3293 119.712 43.9652 119.875 43.6272C120.567 42.4126 121.682 41.4955 123.007 41.0511C123.903 40.7415 124.822 40.5075 125.757 40.3518C126.813 40.1826 127.848 39.9042 128.847 39.521C129.925 39.0527 130.869 38.321 131.59 37.3932C132.379 36.4548 133.061 35.361 133.891 34.327C134.67 33.2735 135.716 32.448 136.922 31.9362C138.074 31.5461 139.299 31.4175 140.508 31.5596C142.797 31.7628 144.799 32.3067 146.485 32.0736C147.843 32.0275 149.141 31.5024 150.149 30.5914C150.477 30.2188 150.745 29.7973 150.944 29.3422Z" fill="#455A64"/>
<path d="M101.066 94.856C101.246 94.818 101.424 94.7681 101.598 94.7066C102.079 94.4856 102.459 94.0906 102.662 93.6009C102.994 92.8271 103.011 91.9544 102.71 91.1682C102.423 90.2358 101.867 89.2436 101.442 88.0602C100.352 85.302 100.056 82.2935 100.588 79.3756C100.951 77.6586 101.699 76.0462 102.775 74.6598C103.353 73.9323 104.029 73.2885 104.784 72.7471C105.569 72.2115 106.416 71.772 107.306 71.4382C108.176 71.1275 108.986 70.6662 109.697 70.0754C110.012 69.7747 110.258 69.4086 110.417 69.0028C110.576 68.5971 110.644 68.1614 110.617 67.7265C110.515 65.9872 109.565 64.3913 109.595 62.6699C109.612 61.8337 109.829 61.0138 110.229 60.2791C110.6 59.6045 111.058 58.9815 111.591 58.4263C112.555 57.457 113.581 56.5525 114.664 55.7187C116.576 54.1408 117.766 52.4254 118.082 51.0746C118.245 50.3746 118.245 49.6467 118.082 48.9468C118.106 48.9896 118.122 49.0361 118.13 49.0842C118.13 49.1739 118.196 49.3114 118.232 49.4907C118.319 50.027 118.301 50.5751 118.178 51.1045C117.973 51.9393 117.606 52.7254 117.096 53.4176C116.431 54.3316 115.656 55.1606 114.789 55.8861C113.725 56.7258 112.714 57.6321 111.765 58.5996C111.251 59.1385 110.809 59.7412 110.45 60.3927C110.076 61.0842 109.871 61.8543 109.852 62.6401C109.883 63.4714 110.038 64.2934 110.312 65.0787C110.613 65.9209 110.813 66.7956 110.91 67.6846C110.942 68.1637 110.867 68.6438 110.693 69.091C110.518 69.5383 110.248 69.9417 109.9 70.2727C109.164 70.8903 108.324 71.372 107.419 71.6952C106.551 72.0412 105.726 72.4886 104.963 73.0281C104.231 73.5526 103.575 74.1762 103.014 74.8809C101.963 76.2282 101.23 77.7952 100.869 79.4653C100.338 82.3316 100.607 85.2887 101.646 88.0124C102.052 89.2078 102.596 90.182 102.877 91.1503C103.013 91.5996 103.078 92.0676 103.068 92.5369C103.05 92.9355 102.95 93.326 102.775 93.6845C102.549 94.1901 102.135 94.5885 101.622 94.7962C101.444 94.8598 101.253 94.8803 101.066 94.856Z" fill="#455A64"/>
</svg>
