<svg width="24" height="23" viewBox="0 0 24 23" fill="none" xmlns="http://www.w3.org/2000/svg">
<path d="M23.1373 9.03212H22.1963V8.98551H11.6822V13.4783H18.2845C17.3213 16.0936 14.7331 17.971 11.6822 17.971C7.81133 17.971 4.6729 14.9536 4.6729 11.2319C4.6729 7.5102 7.81133 4.49275 11.6822 4.49275C13.469 4.49275 15.0946 5.14083 16.3324 6.19944L19.6367 3.0225C17.5502 1.15295 14.7593 0 11.6822 0C5.23072 0 0 5.02908 0 11.2319C0 17.4347 5.23072 22.4638 11.6822 22.4638C18.1338 22.4638 23.3645 17.4347 23.3645 11.2319C23.3645 10.4788 23.2839 9.74366 23.1373 9.03212Z" fill="#FFC107"/>
<path d="M1.34708 6.004L5.18529 8.71033C6.22384 6.23819 8.73902 4.49275 11.6824 4.49275C13.4692 4.49275 15.0947 5.14083 16.3325 6.19944L19.6368 3.0225C17.5504 1.15295 14.7595 0 11.6824 0C7.19522 0 3.30386 2.43563 1.34708 6.004Z" fill="#FF3D00"/>
<path d="M11.682 22.4637C14.6995 22.4637 17.4413 21.3535 19.5144 19.5479L15.8987 16.6063C14.7258 17.4605 13.2679 17.971 11.682 17.971C8.64344 17.971 6.06342 16.1082 5.09145 13.5085L1.28188 16.3306C3.21529 19.968 7.14169 22.4637 11.682 22.4637Z" fill="#4CAF50"/>
<path d="M23.1371 9.03215H22.196V8.98553H11.682V13.4783H18.2843C17.8216 14.7346 16.9811 15.8179 15.897 16.6069C15.8976 16.6064 15.8982 16.6064 15.8987 16.6058L19.5144 19.5474C19.2585 19.771 23.3643 16.8479 23.3643 11.2319C23.3643 10.4788 23.2837 9.74369 23.1371 9.03215Z" fill="#1976D2"/>
</svg>
